<?xml version="1.0" encoding="utf-8"?>
<!-- Generator: Adobe Illustrator 18.1.1, SVG Export Plug-In . SVG Version: 6.00 Build 0)  -->
<svg version="1.1" id="Layer_1" xmlns="http://www.w3.org/2000/svg" xmlns:xlink="http://www.w3.org/1999/xlink" x="0px" y="0px"
	 viewBox="0 0 363.3 101.7" enable-background="new 0 0 363.3 101.7" xml:space="preserve">
<g>
	<path fill="#333333" d="M50.3,62c0,2.2-0.2,6.6,3,6.6c0.6,0,1.3-0.2,1.7-0.6l3,6.3c-1.4,0.9-3.3,2-6,2c-4.6,0-8.5-2.8-9.8-7.9
		c-3.5,3.9-9.5,7.9-18,7.9C9.6,76.3,0,64.5,0,50.6c0-13.6,9.5-25.4,24.3-25.4c8.4,0,14.8,3.8,18,7.9v-6.6h8V62z M25.1,32.6
		c-9.1,0-16.9,7.1-16.9,18.1s7.7,18.1,16.7,18.1c9.5,0,17.2-7.9,17.2-18.4C42.3,39.7,34.2,32.6,25.1,32.6z"/>
	<path fill="#333333" d="M126.4,68.4c-4.6,5.2-10.9,7.9-18.1,7.9c-15.5,0-25.5-11.5-25.5-25.4c0-14.8,11.5-25.7,25.4-25.7
		c7.1,0,12.8,2.7,17.2,7.1l-5.2,5.8c-2.8-3.2-6.9-5.4-12-5.4c-9.5,0-17.2,7.6-17.2,17.7s7.7,18.3,17.5,18.3c5,0,9.5-2.2,12.6-5.7
		L126.4,68.4z"/>
	<path fill="#333333" d="M171.5,31.4c3,3.6,4.1,8.2,4.1,14.2v29.2h-8V47.3c0-10.6-5.7-14.2-12-14.2c-8.2,0-14,6.8-14.2,18.9v22.7h-8
		V0h8v33.9c3-4.9,8.2-8.7,16.1-8.7C163.3,25.2,168.2,27.4,171.5,31.4z"/>
	<path fill="#333333" d="M230.5,68.6c-4.6,5-12.5,7.7-20,7.7c-15.3,0-25.9-10.9-25.9-25.5c0-14.5,10.4-25.5,24.6-25.5
		c12.5,0,25.2,8.4,22.2,29.6h-37.8c1.4,8.5,9.5,14,18.1,14c5.2,0,10.4-2,13.4-5.7L230.5,68.6z M193.6,47.3h29.8
		c0.5-7.1-5-14.7-14.3-14.7C201,32.6,194.7,38.3,193.6,47.3z"/>
	<path fill="#333333" d="M306.7,45.1v29.6h-8V46.8c0-10.4-3.8-13.7-9.1-13.7c-8.4,0-11.5,7.7-11.5,18.4v23.3h-8V47.3
		c0-10.6-4.1-14.2-9.1-14.2c-7.6,0-11.7,8.4-11.7,20v21.8h-8V26.5h8v7.1c1.7-3.6,6-8.4,13.4-8.4c6.9,0,11.8,4.3,13.6,8.2
		c2.8-4.4,7.3-8.2,15.1-8.2C302.1,25.2,306.7,32.5,306.7,45.1z"/>
	<path fill="#333333" d="M355.1,67.8c-2.4,3.8-7.9,8.5-16.6,8.5c-12.8,0-20-8.4-20-22.2V26.5h8v26.8c0,11.7,7.1,15,13.6,15
		c8.2,0,14.8-7.3,15.1-17.8v-24h8v50c0,6.5-1.6,12.5-5,16.9c-4.3,5.5-10.7,8.4-19.2,8.4c-10.2,0-19.9-6.6-23-17.7l7.9-2.7
		c2,7.6,7.9,12.9,15.1,12.9c12.3,0,16.2-8.8,16.2-18.1v-8.4H355.1z"/>
	<rect x="64.8" fill="#333333" width="8" height="74.7"/>
</g>
</svg>
