<?xml version="1.0" encoding="utf-8"?>
<!-- Generator: Adobe Illustrator 18.1.1, SVG Export Plug-In . SVG Version: 6.00 Build 0)  -->
<svg version="1.1" id="Layer_1" xmlns="http://www.w3.org/2000/svg" xmlns:xlink="http://www.w3.org/1999/xlink" x="0px" y="0px"
	 viewBox="0 0 165.9 159.5" enable-background="new 0 0 165.9 159.5" xml:space="preserve">
<path d="M109.7,0C87.7,0,68.6,12.7,59.4,31.2c9.1,4.3,16.5,11.5,21.1,20.4c2.2-14.1,14.5-25,29.2-25c16.3,0,29.6,13.3,29.6,29.6
	c0,16.3-13.3,29.6-29.6,29.6h0v0h-30V72.5h0v0c0-22-17.8-39.9-39.9-39.9C17.8,32.6,0,50.5,0,72.5c0,22,17.8,39.9,39.9,39.9h0h7.5
	V85.8h-7.5v0c-7.3,0-13.3-6-13.3-13.3c0-7.3,6-13.3,13.3-13.3c7.3,0,13.3,6,13.3,13.3h0v58.7H39.7c-2.5,0-3.1,1.4-1.3,3.2l24.7,23.9
	c1.8,1.7,4.7,1.7,6.5,0l24.7-23.9c1.8-1.7,1.2-3.2-1.3-3.2H79.7v-18.8h30c31,0,56.2-25.2,56.2-56.2S140.8,0,109.7,0z"/>
</svg>
